<svg width="26" height="26" viewBox="0 0 26 26" fill="none" xmlns="http://www.w3.org/2000/svg">
<path fill-rule="evenodd" clip-rule="evenodd" d="M12.9904 1.51685C9.52292 1.51685 6.71196 4.33 6.71196 7.80018C6.71196 10.6652 8.62795 13.0823 11.2476 13.8383C9.17952 14.0905 7.40574 14.8225 6.06951 16.1404C4.36885 17.8178 3.50781 20.3149 3.50781 23.5733C3.50781 24.0282 3.87615 24.3967 4.33051 24.3967C4.78488 24.3967 5.1532 24.0282 5.1532 23.5733C5.1532 20.592 5.93751 18.5826 7.22447 17.3132C8.51385 16.0415 10.4387 15.3835 12.9903 15.3835C15.5419 15.3835 17.4669 16.0415 18.7564 17.3133C20.0432 18.5826 20.8277 20.592 20.8277 23.5733C20.8277 24.0282 21.1959 24.3967 21.6504 24.3967C22.1047 24.3969 22.473 24.0282 22.473 23.5735C22.473 20.3149 21.6119 17.8178 19.9113 16.1404C18.575 14.8225 16.8012 14.0905 14.7332 13.8383C17.3528 13.0823 19.2689 10.6652 19.2689 7.80018C19.2689 4.33 16.4579 1.51685 12.9904 1.51685ZM8.35734 7.80018C8.35734 5.23942 10.4316 3.16351 12.9904 3.16351C15.5492 3.16351 17.6235 5.23942 17.6235 7.80018C17.6235 10.3609 15.5492 12.4369 12.9904 12.4369C10.4316 12.4369 8.35734 10.3609 8.35734 7.80018Z" fill="white"/>
</svg>
