<svg width="243" height="70" viewBox="0 0 243 70" fill="none" xmlns="http://www.w3.org/2000/svg">
<rect width="243" height="70" rx="8" fill="#393939"/>
<path d="M81.4023 26V13.2031H85.3398C86.4648 13.2031 87.4697 13.458 88.3545 13.9678C89.2451 14.4717 89.9395 15.1924 90.4375 16.1299C90.9355 17.0615 91.1846 18.1221 91.1846 19.3115V19.9004C91.1846 21.0898 90.9385 22.1475 90.4463 23.0732C89.96 23.999 89.2715 24.7168 88.3809 25.2266C87.4902 25.7363 86.4854 25.9941 85.3662 26H81.4023ZM84.0391 15.3389V23.8818H85.3135C86.3447 23.8818 87.1328 23.5449 87.6777 22.8711C88.2227 22.1973 88.501 21.2334 88.5127 19.9795V19.3027C88.5127 18.002 88.2432 17.0176 87.7041 16.3496C87.165 15.6758 86.377 15.3389 85.3398 15.3389H84.0391ZM95.623 26H93.0742V16.4902H95.623V26ZM92.9248 14.0293C92.9248 13.6484 93.0508 13.335 93.3027 13.0889C93.5605 12.8428 93.9092 12.7197 94.3486 12.7197C94.7822 12.7197 95.1279 12.8428 95.3857 13.0889C95.6436 13.335 95.7725 13.6484 95.7725 14.0293C95.7725 14.416 95.6406 14.7324 95.377 14.9785C95.1191 15.2246 94.7764 15.3477 94.3486 15.3477C93.9209 15.3477 93.5752 15.2246 93.3115 14.9785C93.0537 14.7324 92.9248 14.416 92.9248 14.0293ZM102.874 23.3721C102.874 23.0615 102.719 22.8184 102.408 22.6426C102.104 22.4609 101.611 22.2998 100.932 22.1592C98.6699 21.6846 97.5391 20.7236 97.5391 19.2764C97.5391 18.4326 97.8877 17.7295 98.585 17.167C99.2881 16.5986 100.205 16.3145 101.336 16.3145C102.543 16.3145 103.507 16.5986 104.228 17.167C104.954 17.7354 105.317 18.4736 105.317 19.3818H102.777C102.777 19.0186 102.66 18.7197 102.426 18.4854C102.191 18.2451 101.825 18.125 101.327 18.125C100.899 18.125 100.568 18.2217 100.334 18.415C100.1 18.6084 99.9824 18.8545 99.9824 19.1533C99.9824 19.4346 100.114 19.6631 100.378 19.8389C100.647 20.0088 101.099 20.1582 101.731 20.2871C102.364 20.4102 102.897 20.5508 103.331 20.709C104.673 21.2012 105.344 22.0537 105.344 23.2666C105.344 24.1338 104.972 24.8369 104.228 25.376C103.483 25.9092 102.522 26.1758 101.345 26.1758C100.548 26.1758 99.8389 26.0352 99.2178 25.7539C98.6025 25.4668 98.1191 25.0771 97.7676 24.585C97.416 24.0869 97.2402 23.5508 97.2402 22.9766H99.6484C99.6719 23.4277 99.8389 23.7734 100.149 24.0137C100.46 24.2539 100.876 24.374 101.397 24.374C101.884 24.374 102.25 24.2832 102.496 24.1016C102.748 23.9141 102.874 23.6709 102.874 23.3721ZM115.548 21.333C115.548 22.7979 115.214 23.9727 114.546 24.8574C113.884 25.7363 112.987 26.1758 111.856 26.1758C110.896 26.1758 110.119 25.8418 109.527 25.1738V29.6562H106.987V16.4902H109.343L109.431 17.4219C110.046 16.6836 110.849 16.3145 111.839 16.3145C113.011 16.3145 113.922 16.748 114.572 17.6152C115.223 18.4824 115.548 19.6777 115.548 21.2012V21.333ZM113.008 21.1484C113.008 20.2637 112.85 19.5811 112.533 19.1006C112.223 18.6201 111.769 18.3799 111.171 18.3799C110.374 18.3799 109.826 18.6846 109.527 19.2939V23.1875C109.838 23.8145 110.392 24.1279 111.188 24.1279C112.401 24.1279 113.008 23.1348 113.008 21.1484ZM116.734 21.1572C116.734 20.2139 116.916 19.373 117.279 18.6348C117.643 17.8965 118.164 17.3252 118.844 16.9209C119.529 16.5166 120.323 16.3145 121.226 16.3145C122.509 16.3145 123.555 16.707 124.363 17.4922C125.178 18.2773 125.632 19.3438 125.726 20.6914L125.743 21.3418C125.743 22.8008 125.336 23.9727 124.521 24.8574C123.707 25.7363 122.614 26.1758 121.243 26.1758C119.872 26.1758 118.776 25.7363 117.956 24.8574C117.142 23.9785 116.734 22.7832 116.734 21.2715V21.1572ZM119.274 21.3418C119.274 22.2441 119.444 22.9355 119.784 23.416C120.124 23.8906 120.61 24.1279 121.243 24.1279C121.858 24.1279 122.339 23.8936 122.685 23.4248C123.03 22.9502 123.203 22.1943 123.203 21.1572C123.203 20.2725 123.03 19.5869 122.685 19.1006C122.339 18.6143 121.853 18.3711 121.226 18.3711C120.604 18.3711 120.124 18.6143 119.784 19.1006C119.444 19.5811 119.274 20.3281 119.274 21.3418ZM129.646 16.4902L129.725 17.5889C130.404 16.7393 131.315 16.3145 132.458 16.3145C133.466 16.3145 134.216 16.6104 134.708 17.2021C135.2 17.7939 135.452 18.6787 135.464 19.8564V26H132.924V19.918C132.924 19.3789 132.807 18.9893 132.572 18.749C132.338 18.5029 131.948 18.3799 131.403 18.3799C130.688 18.3799 130.152 18.6846 129.795 19.2939V26H127.255V16.4902H129.646ZM140.078 26H137.529V16.4902H140.078V26ZM137.38 14.0293C137.38 13.6484 137.506 13.335 137.758 13.0889C138.016 12.8428 138.364 12.7197 138.804 12.7197C139.237 12.7197 139.583 12.8428 139.841 13.0889C140.099 13.335 140.228 13.6484 140.228 14.0293C140.228 14.416 140.096 14.7324 139.832 14.9785C139.574 15.2246 139.231 15.3477 138.804 15.3477C138.376 15.3477 138.03 15.2246 137.767 14.9785C137.509 14.7324 137.38 14.416 137.38 14.0293ZM150.748 21.333C150.748 22.8564 150.423 24.0459 149.772 24.9014C149.122 25.751 148.214 26.1758 147.048 26.1758C146.017 26.1758 145.193 25.7803 144.578 24.9893L144.464 26H142.179V12.5H144.719V17.3428C145.305 16.6572 146.075 16.3145 147.03 16.3145C148.19 16.3145 149.099 16.7422 149.755 17.5977C150.417 18.4473 150.748 19.6455 150.748 21.1924V21.333ZM148.208 21.1484C148.208 20.1875 148.056 19.4873 147.751 19.0479C147.446 18.6025 146.992 18.3799 146.389 18.3799C145.58 18.3799 145.023 18.7109 144.719 19.373V23.126C145.029 23.7939 145.592 24.1279 146.406 24.1279C147.227 24.1279 147.766 23.7236 148.023 22.915C148.146 22.5283 148.208 21.9395 148.208 21.1484ZM155.002 26H152.453V12.5H155.002V26ZM161.479 26.1758C160.085 26.1758 158.948 25.748 158.069 24.8926C157.196 24.0371 156.76 22.8975 156.76 21.4736V21.2275C156.76 20.2725 156.944 19.4199 157.313 18.6699C157.683 17.9141 158.204 17.334 158.878 16.9297C159.558 16.5195 160.331 16.3145 161.198 16.3145C162.499 16.3145 163.521 16.7246 164.266 17.5449C165.016 18.3652 165.391 19.5283 165.391 21.0342V22.0713H159.335C159.417 22.6924 159.663 23.1904 160.073 23.5654C160.489 23.9404 161.014 24.1279 161.646 24.1279C162.625 24.1279 163.39 23.7734 163.94 23.0645L165.188 24.4619C164.808 25.001 164.292 25.4229 163.642 25.7275C162.991 26.0264 162.271 26.1758 161.479 26.1758ZM161.189 18.3711C160.686 18.3711 160.275 18.541 159.959 18.8809C159.648 19.2207 159.449 19.707 159.361 20.3398H162.895V20.1377C162.883 19.5752 162.73 19.1416 162.438 18.8369C162.145 18.5264 161.729 18.3711 161.189 18.3711ZM176.474 23.3721C176.474 23.0615 176.318 22.8184 176.008 22.6426C175.703 22.4609 175.211 22.2998 174.531 22.1592C172.27 21.6846 171.139 20.7236 171.139 19.2764C171.139 18.4326 171.487 17.7295 172.185 17.167C172.888 16.5986 173.805 16.3145 174.936 16.3145C176.143 16.3145 177.106 16.5986 177.827 17.167C178.554 17.7354 178.917 18.4736 178.917 19.3818H176.377C176.377 19.0186 176.26 18.7197 176.025 18.4854C175.791 18.2451 175.425 18.125 174.927 18.125C174.499 18.125 174.168 18.2217 173.934 18.415C173.699 18.6084 173.582 18.8545 173.582 19.1533C173.582 19.4346 173.714 19.6631 173.978 19.8389C174.247 20.0088 174.698 20.1582 175.331 20.2871C175.964 20.4102 176.497 20.5508 176.931 20.709C178.272 21.2012 178.943 22.0537 178.943 23.2666C178.943 24.1338 178.571 24.8369 177.827 25.376C177.083 25.9092 176.122 26.1758 174.944 26.1758C174.147 26.1758 173.438 26.0352 172.817 25.7539C172.202 25.4668 171.719 25.0771 171.367 24.585C171.016 24.0869 170.84 23.5508 170.84 22.9766H173.248C173.271 23.4277 173.438 23.7734 173.749 24.0137C174.06 24.2539 174.476 24.374 174.997 24.374C175.483 24.374 175.85 24.2832 176.096 24.1016C176.348 23.9141 176.474 23.6709 176.474 23.3721ZM186.282 25.0332C185.655 25.7949 184.788 26.1758 183.681 26.1758C182.661 26.1758 181.882 25.8828 181.343 25.2969C180.81 24.7109 180.537 23.8525 180.525 22.7217V16.4902H183.065V22.6338C183.065 23.624 183.517 24.1191 184.419 24.1191C185.28 24.1191 185.872 23.8203 186.194 23.2227V16.4902H188.743V26H186.353L186.282 25.0332ZM196.003 18.8721C195.657 18.8252 195.353 18.8018 195.089 18.8018C194.128 18.8018 193.498 19.127 193.199 19.7773V26H190.659V16.4902H193.059L193.129 17.624C193.639 16.751 194.345 16.3145 195.247 16.3145C195.528 16.3145 195.792 16.3525 196.038 16.4287L196.003 18.8721ZM90.9531 51.8438C90.3203 52.6016 89.4258 53.1914 88.2695 53.6133C87.1133 54.0273 85.832 54.2344 84.4258 54.2344C82.9492 54.2344 81.6523 53.9141 80.5352 53.2734C79.4258 52.625 78.5664 51.6875 77.957 50.4609C77.3555 49.2344 77.0469 47.793 77.0312 46.1367V44.9766C77.0312 43.2734 77.3164 41.8008 77.8867 40.5586C78.4648 39.3086 79.293 38.3555 80.3711 37.6992C81.457 37.0352 82.7266 36.7031 84.1797 36.7031C86.2031 36.7031 87.7852 37.1875 88.9258 38.1562C90.0664 39.1172 90.7422 40.5195 90.9531 42.3633H87.5312C87.375 41.3867 87.0273 40.6719 86.4883 40.2188C85.957 39.7656 85.2227 39.5391 84.2852 39.5391C83.0898 39.5391 82.1797 39.9883 81.5547 40.8867C80.9297 41.7852 80.6133 43.1211 80.6055 44.8945V45.9844C80.6055 47.7734 80.9453 49.125 81.625 50.0391C82.3047 50.9531 83.3008 51.4102 84.6133 51.4102C85.9336 51.4102 86.875 51.1289 87.4375 50.5664V47.625H84.2383V45.0352H90.9531V51.8438ZM93.0625 47.543C93.0625 46.2852 93.3047 45.1641 93.7891 44.1797C94.2734 43.1953 94.9688 42.4336 95.875 41.8945C96.7891 41.3555 97.8477 41.0859 99.0508 41.0859C100.762 41.0859 102.156 41.6094 103.234 42.6562C104.32 43.7031 104.926 45.125 105.051 46.9219L105.074 47.7891C105.074 49.7344 104.531 51.2969 103.445 52.4766C102.359 53.6484 100.902 54.2344 99.0742 54.2344C97.2461 54.2344 95.7852 53.6484 94.6914 52.4766C93.6055 51.3047 93.0625 49.7109 93.0625 47.6953V47.543ZM96.4492 47.7891C96.4492 48.9922 96.6758 49.9141 97.1289 50.5547C97.582 51.1875 98.2305 51.5039 99.0742 51.5039C99.8945 51.5039 100.535 51.1914 100.996 50.5664C101.457 49.9336 101.688 48.9258 101.688 47.543C101.688 46.3633 101.457 45.4492 100.996 44.8008C100.535 44.1523 99.8867 43.8281 99.0508 43.8281C98.2227 43.8281 97.582 44.1523 97.1289 44.8008C96.6758 45.4414 96.4492 46.4375 96.4492 47.7891ZM106.633 47.543C106.633 46.2852 106.875 45.1641 107.359 44.1797C107.844 43.1953 108.539 42.4336 109.445 41.8945C110.359 41.3555 111.418 41.0859 112.621 41.0859C114.332 41.0859 115.727 41.6094 116.805 42.6562C117.891 43.7031 118.496 45.125 118.621 46.9219L118.645 47.7891C118.645 49.7344 118.102 51.2969 117.016 52.4766C115.93 53.6484 114.473 54.2344 112.645 54.2344C110.816 54.2344 109.355 53.6484 108.262 52.4766C107.176 51.3047 106.633 49.7109 106.633 47.6953V47.543ZM110.02 47.7891C110.02 48.9922 110.246 49.9141 110.699 50.5547C111.152 51.1875 111.801 51.5039 112.645 51.5039C113.465 51.5039 114.105 51.1914 114.566 50.5664C115.027 49.9336 115.258 48.9258 115.258 47.543C115.258 46.3633 115.027 45.4492 114.566 44.8008C114.105 44.1523 113.457 43.8281 112.621 43.8281C111.793 43.8281 111.152 44.1523 110.699 44.8008C110.246 45.4414 110.02 46.4375 110.02 47.7891ZM120.238 47.5664C120.238 45.6211 120.699 44.0547 121.621 42.8672C122.551 41.6797 123.801 41.0859 125.371 41.0859C126.762 41.0859 127.844 41.5625 128.617 42.5156L128.758 41.3203H131.828V53.5781C131.828 54.6875 131.574 55.6523 131.066 56.4727C130.566 57.293 129.859 57.918 128.945 58.3477C128.031 58.7773 126.961 58.9922 125.734 58.9922C124.805 58.9922 123.898 58.8047 123.016 58.4297C122.133 58.0625 121.465 57.5859 121.012 57L122.512 54.9375C123.355 55.8828 124.379 56.3555 125.582 56.3555C126.48 56.3555 127.18 56.1133 127.68 55.6289C128.18 55.1523 128.43 54.4727 128.43 53.5898V52.9102C127.648 53.793 126.621 54.2344 125.348 54.2344C123.824 54.2344 122.59 53.6406 121.645 52.4531C120.707 51.2578 120.238 49.6758 120.238 47.707V47.5664ZM123.625 47.8125C123.625 48.9609 123.855 49.8633 124.316 50.5195C124.777 51.168 125.41 51.4922 126.215 51.4922C127.246 51.4922 127.984 51.1055 128.43 50.332V45C127.977 44.2266 127.246 43.8398 126.238 43.8398C125.426 43.8398 124.785 44.1719 124.316 44.8359C123.855 45.5 123.625 46.4922 123.625 47.8125ZM138.016 54H134.617V36H138.016V54ZM146.652 54.2344C144.793 54.2344 143.277 53.6641 142.105 52.5234C140.941 51.3828 140.359 49.8633 140.359 47.9648V47.6367C140.359 46.3633 140.605 45.2266 141.098 44.2266C141.59 43.2188 142.285 42.4453 143.184 41.9062C144.09 41.3594 145.121 41.0859 146.277 41.0859C148.012 41.0859 149.375 41.6328 150.367 42.7266C151.367 43.8203 151.867 45.3711 151.867 47.3789V48.7617H143.793C143.902 49.5898 144.23 50.2539 144.777 50.7539C145.332 51.2539 146.031 51.5039 146.875 51.5039C148.18 51.5039 149.199 51.0312 149.934 50.0859L151.598 51.9492C151.09 52.668 150.402 53.2305 149.535 53.6367C148.668 54.0352 147.707 54.2344 146.652 54.2344ZM146.266 43.8281C145.594 43.8281 145.047 44.0547 144.625 44.5078C144.211 44.9609 143.945 45.6094 143.828 46.4531H148.539V46.1836C148.523 45.4336 148.32 44.8555 147.93 44.4492C147.539 44.0352 146.984 43.8281 146.266 43.8281ZM163.516 47.9883V54H160V36.9375H166.656C167.938 36.9375 169.062 37.1719 170.031 37.6406C171.008 38.1094 171.758 38.7773 172.281 39.6445C172.805 40.5039 173.066 41.4844 173.066 42.5859C173.066 44.2578 172.492 45.5781 171.344 46.5469C170.203 47.5078 168.621 47.9883 166.598 47.9883H163.516ZM163.516 45.1406H166.656C167.586 45.1406 168.293 44.9219 168.777 44.4844C169.27 44.0469 169.516 43.4219 169.516 42.6094C169.516 41.7734 169.27 41.0977 168.777 40.582C168.285 40.0664 167.605 39.8008 166.738 39.7852H163.516V45.1406ZM178.844 54H175.445V36H178.844V54ZM188.992 54C188.836 53.6953 188.723 53.3164 188.652 52.8633C187.832 53.7773 186.766 54.2344 185.453 54.2344C184.211 54.2344 183.18 53.875 182.359 53.1562C181.547 52.4375 181.141 51.5312 181.141 50.4375C181.141 49.0938 181.637 48.0625 182.629 47.3438C183.629 46.625 185.07 46.2617 186.953 46.2539H188.512V45.5273C188.512 44.9414 188.359 44.4727 188.055 44.1211C187.758 43.7695 187.285 43.5938 186.637 43.5938C186.066 43.5938 185.617 43.7305 185.289 44.0039C184.969 44.2773 184.809 44.6523 184.809 45.1289H181.422C181.422 44.3945 181.648 43.7148 182.102 43.0898C182.555 42.4648 183.195 41.9766 184.023 41.625C184.852 41.2656 185.781 41.0859 186.812 41.0859C188.375 41.0859 189.613 41.4805 190.527 42.2695C191.449 43.0508 191.91 44.1523 191.91 45.5742V51.0703C191.918 52.2734 192.086 53.1836 192.414 53.8008V54H188.992ZM186.191 51.6445C186.691 51.6445 187.152 51.5352 187.574 51.3164C187.996 51.0898 188.309 50.7891 188.512 50.4141V48.2344H187.246C185.551 48.2344 184.648 48.8203 184.539 49.9922L184.527 50.1914C184.527 50.6133 184.676 50.9609 184.973 51.2344C185.27 51.5078 185.676 51.6445 186.191 51.6445ZM199.059 49.207L201.402 41.3203H205.035L199.938 55.9688L199.656 56.6367C198.898 58.293 197.648 59.1211 195.906 59.1211C195.414 59.1211 194.914 59.0469 194.406 58.8984V56.332L194.922 56.3438C195.562 56.3438 196.039 56.2461 196.352 56.0508C196.672 55.8555 196.922 55.5312 197.102 55.0781L197.5 54.0352L193.059 41.3203H196.703L199.059 49.207Z" fill="white"/>
<path d="M55.0742 33.515L18.5167 11.8376V53.1279L55.0742 33.515Z" fill="#AAAAAA"/>
<path d="M18.5387 53.1511L36.7948 32.4832L43.3462 39.8061L18.5387 53.1511Z" fill="#BDBDBD"/>
<path d="M18.517 11.8375L36.7957 32.4827L43.2471 26.2892L30.3444 18.5472L18.517 11.8375Z" fill="#8F8F8F"/>
<path d="M36.7948 32.5254L43.2753 39.7521L43.2748 26.2893L40.0348 29.4073L36.7948 32.5254Z" fill="#A1A1A1"/>
<path d="M55.0742 33.5149L43.2468 39.7084V26.2891L55.0742 33.5149Z" fill="#A2A2A2"/>
</svg>
