<svg width="28" height="23" viewBox="0 0 28 23" fill="none" xmlns="http://www.w3.org/2000/svg">
<path d="M27.075 3.4875C26.1125 3.9 25.0125 4.17501 23.9125 4.31251C25.0125 3.62501 25.975 2.52501 26.3875 1.28751C25.2875 1.97501 24.1875 2.38751 22.8125 2.66251C21.85 1.56251 20.3375 0.875 18.825 0.875C15.8 0.875 13.325 3.35001 13.325 6.37502C13.325 6.78752 13.325 7.20001 13.4625 7.61252C8.925 7.33751 4.79999 5.13751 2.04999 1.8375C1.63749 2.6625 1.36249 3.62501 1.36249 4.58751C1.36249 6.51252 2.325 8.16253 3.8375 9.12503C2.875 9.12503 2.04999 8.85003 1.36249 8.43753C1.36249 11.05 3.28749 13.3875 5.76249 13.8C5.34999 13.9375 4.8 13.9375 4.25 13.9375C3.8375 13.9375 3.5625 13.9375 3.15 13.8C3.8375 16 5.9 17.6501 8.37501 17.6501C6.45 19.1626 4.1125 19.9876 1.5 19.9876C1.0875 19.9876 0.675 19.9876 0.125 19.8501C2.6 21.3626 5.4875 22.3251 8.65 22.3251C18.825 22.3251 24.325 13.9375 24.325 6.65002V5.96251C25.425 5.55001 26.3875 4.5875 27.075 3.4875Z" fill="white"/>
</svg>
