<svg width="243" height="64" viewBox="0 0 243 64" fill="none" xmlns="http://www.w3.org/2000/svg">
<path d="M3.51 53.33C4.21 53.33 4.74333 53.4733 5.11 53.76C5.47667 54.0467 5.66 54.4367 5.66 54.93V55.15C5.66 55.85 5.35333 56.3333 4.74 56.6C5.11333 56.68 5.40333 56.8533 5.61 57.12C5.82333 57.38 5.93 57.7033 5.93 58.09V58.31C5.93 58.8633 5.73333 59.3033 5.34 59.63C4.95333 59.9567 4.36667 60.12 3.58 60.12C3.13333 60.12 2.52333 60.1 1.75 60.06V53.37C2.36333 53.3433 2.95 53.33 3.51 53.33ZM3.38 54.06C3.14 54.06 2.88 54.07 2.6 54.09V56.33H3.58C3.98 56.33 4.28333 56.2333 4.49 56.04C4.70333 55.8467 4.81 55.5767 4.81 55.23V55.06C4.81 54.7267 4.69667 54.4767 4.47 54.31C4.24333 54.1433 3.88 54.06 3.38 54.06ZM2.6 57.02V59.32C2.82 59.34 3 59.3567 3.14 59.37C3.28667 59.3767 3.43333 59.38 3.58 59.38C4.09333 59.38 4.47 59.2833 4.71 59.09C4.95667 58.89 5.08 58.6133 5.08 58.26V58.05C5.08 57.3633 4.6 57.02 3.64 57.02H2.6ZM8.65297 55C9.2463 55 9.6863 55.16 9.97297 55.48C10.2663 55.7933 10.413 56.24 10.413 56.82V58.3C10.413 58.88 10.2663 59.33 9.97297 59.65C9.6863 59.9633 9.2463 60.12 8.65297 60.12C8.05964 60.12 7.6163 59.9633 7.32297 59.65C7.0363 59.33 6.89297 58.88 6.89297 58.3V56.82C6.89297 56.24 7.0363 55.7933 7.32297 55.48C7.6163 55.16 8.05964 55 8.65297 55ZM8.65297 55.71C8.3663 55.71 8.14297 55.8 7.98297 55.98C7.82297 56.16 7.74297 56.4167 7.74297 56.75V58.37C7.74297 58.7033 7.82297 58.96 7.98297 59.14C8.14297 59.32 8.3663 59.41 8.65297 59.41C8.93964 59.41 9.16297 59.32 9.32297 59.14C9.48297 58.96 9.56297 58.7033 9.56297 58.37V56.74C9.56297 56.4067 9.48297 56.1533 9.32297 55.98C9.16297 55.8 8.93964 55.71 8.65297 55.71ZM13.8398 55C13.9331 55 14.0064 55.0067 14.0598 55.02V55.98C13.9598 55.96 13.8298 55.95 13.6698 55.95C13.2031 55.95 12.8331 56.1833 12.5598 56.65V60H11.7098V55.12H12.5098V55.85C12.6898 55.5767 12.8898 55.3667 13.1098 55.22C13.3364 55.0733 13.5798 55 13.8398 55ZM18.2534 60H17.4434V59.21C17.0434 59.8167 16.5867 60.12 16.0734 60.12C15.66 60.12 15.3434 59.98 15.1234 59.7C14.9034 59.4133 14.7934 58.9967 14.7934 58.45V56.67C14.7934 56.1433 14.9134 55.7333 15.1534 55.44C15.4 55.1467 15.75 55 16.2034 55C16.3967 55 16.6 55.05 16.8134 55.15C17.0267 55.2433 17.2234 55.36 17.4034 55.5V53.17H18.2534V60ZM16.3934 55.76C16.1534 55.76 15.9667 55.8467 15.8334 56.02C15.7067 56.1867 15.6434 56.4433 15.6434 56.79V58.34C15.6434 59.02 15.8534 59.36 16.2734 59.36C16.4734 59.36 16.67 59.2833 16.8634 59.13C17.0634 58.97 17.2434 58.7467 17.4034 58.46V56.26C17.2634 56.1133 17.0967 55.9933 16.9034 55.9C16.7167 55.8067 16.5467 55.76 16.3934 55.76ZM21.2492 55C21.8092 55 22.2359 55.1533 22.5292 55.46C22.8226 55.7667 22.9692 56.21 22.9692 56.79V57.82H20.3992V58.41C20.3992 58.75 20.4792 58.9967 20.6392 59.15C20.8059 59.2967 21.0659 59.37 21.4192 59.37C21.7659 59.37 22.1992 59.3167 22.7192 59.21L22.7392 59.95C22.1192 60.0633 21.6759 60.12 21.4092 60.12C20.7492 60.12 20.2726 59.9767 19.9792 59.69C19.6926 59.4033 19.5492 58.96 19.5492 58.36V56.79C19.5492 56.21 19.6892 55.7667 19.9692 55.46C20.2559 55.1533 20.6826 55 21.2492 55ZM21.2492 55.71C20.9892 55.71 20.7826 55.7933 20.6292 55.96C20.4759 56.12 20.3992 56.3533 20.3992 56.66V57.14H22.1192V56.69C22.1192 56.37 22.0392 56.1267 21.8792 55.96C21.7259 55.7933 21.5159 55.71 21.2492 55.71ZM25.6119 55C26.1852 55 26.6019 55.13 26.8619 55.39C27.1285 55.6433 27.2619 56.05 27.2619 56.61V60H26.4519V59.22C26.0652 59.82 25.6285 60.12 25.1419 60.12C24.7552 60.12 24.4452 59.9867 24.2119 59.72C23.9852 59.4533 23.8719 59.09 23.8719 58.63V58.35C23.8719 57.95 24.0085 57.62 24.2819 57.36C24.5552 57.0933 24.9219 56.96 25.3819 56.96C25.6352 56.96 25.9785 57.0033 26.4119 57.09V56.54C26.4119 56.2533 26.3452 56.0467 26.2119 55.92C26.0852 55.7933 25.8852 55.73 25.6119 55.73C25.2919 55.73 24.8419 55.78 24.2619 55.88V55.15C24.8885 55.05 25.3385 55 25.6119 55ZM25.5919 57.62C25.3119 57.62 25.0985 57.6933 24.9519 57.84C24.8052 57.9867 24.7319 58.1933 24.7319 58.46V58.57C24.7319 58.8167 24.7885 59.01 24.9019 59.15C25.0152 59.29 25.1585 59.36 25.3319 59.36C25.5119 59.36 25.6952 59.2833 25.8819 59.13C26.0752 58.97 26.2519 58.7467 26.4119 58.46V57.69C26.1585 57.6433 25.8852 57.62 25.5919 57.62ZM32.0141 60H31.2141V59.3C31.0341 59.5667 30.8341 59.77 30.6141 59.91C30.3941 60.05 30.1607 60.12 29.9141 60.12C29.5074 60.12 29.1874 59.98 28.9541 59.7C28.7274 59.4133 28.6141 58.9967 28.6141 58.45V55.12H29.4641V58.3C29.4641 58.6533 29.5174 58.9133 29.6241 59.08C29.7374 59.2467 29.8907 59.33 30.0841 59.33C30.2641 59.33 30.4507 59.26 30.6441 59.12C30.8441 58.9733 31.0174 58.7733 31.1641 58.52V55.12H32.0141V60ZM36.7688 55.12L35.3388 57.46L36.8788 60H35.9088L34.8088 58.09L33.7388 60H32.7688L34.2888 57.49L32.8688 55.12H33.8388L34.8288 56.87L35.8288 55.12H36.7688ZM41.2346 53.33C41.9346 53.33 42.4679 53.4733 42.8346 53.76C43.2013 54.0467 43.3846 54.4367 43.3846 54.93V55.15C43.3846 55.85 43.0779 56.3333 42.4646 56.6C42.8379 56.68 43.1279 56.8533 43.3346 57.12C43.5479 57.38 43.6546 57.7033 43.6546 58.09V58.31C43.6546 58.8633 43.4579 59.3033 43.0646 59.63C42.6779 59.9567 42.0913 60.12 41.3046 60.12C40.8579 60.12 40.2479 60.1 39.4746 60.06V53.37C40.0879 53.3433 40.6746 53.33 41.2346 53.33ZM41.1046 54.06C40.8646 54.06 40.6046 54.07 40.3246 54.09V56.33H41.3046C41.7046 56.33 42.0079 56.2333 42.2146 56.04C42.4279 55.8467 42.5346 55.5767 42.5346 55.23V55.06C42.5346 54.7267 42.4213 54.4767 42.1946 54.31C41.9679 54.1433 41.6046 54.06 41.1046 54.06ZM40.3246 57.02V59.32C40.5446 59.34 40.7246 59.3567 40.8646 59.37C41.0113 59.3767 41.1579 59.38 41.3046 59.38C41.8179 59.38 42.1946 59.2833 42.4346 59.09C42.6813 58.89 42.8046 58.6133 42.8046 58.26V58.05C42.8046 57.3633 42.3246 57.02 41.3646 57.02H40.3246ZM46.2076 55C46.7809 55 47.1976 55.13 47.4576 55.39C47.7242 55.6433 47.8576 56.05 47.8576 56.61V60H47.0476V59.22C46.6609 59.82 46.2242 60.12 45.7376 60.12C45.3509 60.12 45.0409 59.9867 44.8076 59.72C44.5809 59.4533 44.4676 59.09 44.4676 58.63V58.35C44.4676 57.95 44.6042 57.62 44.8776 57.36C45.1509 57.0933 45.5176 56.96 45.9776 56.96C46.2309 56.96 46.5742 57.0033 47.0076 57.09V56.54C47.0076 56.2533 46.9409 56.0467 46.8076 55.92C46.6809 55.7933 46.4809 55.73 46.2076 55.73C45.8876 55.73 45.4376 55.78 44.8576 55.88V55.15C45.4842 55.05 45.9342 55 46.2076 55ZM46.1876 57.62C45.9076 57.62 45.6942 57.6933 45.5476 57.84C45.4009 57.9867 45.3276 58.1933 45.3276 58.46V58.57C45.3276 58.8167 45.3842 59.01 45.4976 59.15C45.6109 59.29 45.7542 59.36 45.9276 59.36C46.1076 59.36 46.2909 59.2833 46.4776 59.13C46.6709 58.97 46.8476 58.7467 47.0076 58.46V57.69C46.7542 57.6433 46.4809 57.62 46.1876 57.62ZM50.6098 55C50.8898 55 51.2264 55.04 51.6198 55.12L51.5998 55.84C51.2531 55.76 50.9364 55.72 50.6498 55.72C50.0498 55.72 49.7498 55.9133 49.7498 56.3V56.39C49.7498 56.51 49.7798 56.6067 49.8398 56.68C49.9064 56.7533 50.0231 56.83 50.1898 56.91L51.1298 57.35C51.6964 57.6167 51.9798 58.0067 51.9798 58.52V58.74C51.9731 59.2 51.8331 59.5467 51.5598 59.78C51.2931 60.0067 50.8698 60.12 50.2898 60.12C49.9898 60.12 49.5598 60.05 48.9998 59.91L49.0398 59.15C49.5398 59.2967 49.9498 59.37 50.2698 59.37C50.5964 59.37 50.8231 59.3267 50.9498 59.24C51.0764 59.1467 51.1398 58.9967 51.1398 58.79V58.69C51.1398 58.53 51.1064 58.4033 51.0398 58.31C50.9798 58.2167 50.8764 58.1367 50.7298 58.07L49.7598 57.64C49.4664 57.5067 49.2498 57.3467 49.1098 57.16C48.9764 56.9733 48.9098 56.7567 48.9098 56.51V56.37C48.9231 55.9167 49.0631 55.5767 49.3298 55.35C49.6031 55.1167 50.0298 55 50.6098 55ZM54.0281 55.12H55.3281V55.82H54.0281V58.68C54.0281 58.9333 54.0781 59.1167 54.1781 59.23C54.2848 59.3367 54.4481 59.39 54.6681 59.39C54.9481 59.39 55.2215 59.3567 55.4881 59.29L55.5081 60C55.2148 60.08 54.9481 60.12 54.7081 60.12C54.1748 60.12 53.7848 60.0033 53.5381 59.77C53.2981 59.53 53.1781 59.1433 53.1781 58.61V55.82H52.4781V55.12H53.1781L53.3381 53.82H54.0281V55.12ZM57.257 55.12V60H56.407V55.12H57.257ZM56.827 53.15C57.007 53.15 57.1437 53.19 57.237 53.27C57.337 53.35 57.387 53.4633 57.387 53.61V53.9C57.387 54.0467 57.337 54.16 57.237 54.24C57.1437 54.3133 57.007 54.35 56.827 54.35C56.6537 54.35 56.517 54.3133 56.417 54.24C56.3237 54.16 56.277 54.0467 56.277 53.9V53.61C56.277 53.4633 56.3237 53.35 56.417 53.27C56.517 53.19 56.6537 53.15 56.827 53.15ZM62.0131 60H61.2031V59.21C60.8031 59.8167 60.3465 60.12 59.8331 60.12C59.4198 60.12 59.1031 59.98 58.8831 59.7C58.6631 59.4133 58.5531 58.9967 58.5531 58.45V56.67C58.5531 56.1433 58.6731 55.7333 58.9131 55.44C59.1598 55.1467 59.5098 55 59.9631 55C60.1565 55 60.3598 55.05 60.5731 55.15C60.7865 55.2433 60.9831 55.36 61.1631 55.5V53.17H62.0131V60ZM60.1531 55.76C59.9131 55.76 59.7265 55.8467 59.5931 56.02C59.4665 56.1867 59.4031 56.4433 59.4031 56.79V58.34C59.4031 59.02 59.6131 59.36 60.0331 59.36C60.2331 59.36 60.4298 59.2833 60.6231 59.13C60.8231 58.97 61.0031 58.7467 61.1631 58.46V56.26C61.0231 56.1133 60.8565 55.9933 60.6631 55.9C60.4765 55.8067 60.3065 55.76 60.1531 55.76ZM65.009 55C65.569 55 65.9957 55.1533 66.289 55.46C66.5823 55.7667 66.729 56.21 66.729 56.79V57.82H64.159V58.41C64.159 58.75 64.239 58.9967 64.399 59.15C64.5657 59.2967 64.8257 59.37 65.179 59.37C65.5257 59.37 65.959 59.3167 66.479 59.21L66.499 59.95C65.879 60.0633 65.4357 60.12 65.169 60.12C64.509 60.12 64.0323 59.9767 63.739 59.69C63.4523 59.4033 63.309 58.96 63.309 58.36V56.79C63.309 56.21 63.449 55.7667 63.729 55.46C64.0157 55.1533 64.4423 55 65.009 55ZM65.009 55.71C64.749 55.71 64.5423 55.7933 64.389 55.96C64.2357 56.12 64.159 56.3533 64.159 56.66V57.14H65.879V56.69C65.879 56.37 65.799 56.1267 65.639 55.96C65.4857 55.7933 65.2757 55.71 65.009 55.71Z" fill="#FEFEFE"/>
<path d="M40.8765 6.13672L32.2019 6.45087L20.4292 11.7915L8.65655 6.13672H0.601562V43.8353H8.65655V14.3048L20.4292 19.9595L32.2019 14.3048V43.8353H40.8765V6.13672Z" fill="$pink"/>
<path d="M40.8765 6.13672L32.2019 6.45087L20.4292 11.7915L8.65655 6.13672H0.601562V43.8353H8.65655V14.3048L20.4292 19.9595L32.2019 14.3048V43.8353H40.8765V6.13672Z" stroke="black"/>
<path d="M24.4752 43.836L24.4752 21.2168L20.4477 23.1017L16.4202 21.2168C16.394 26.1343 16.4115 37.8573 16.418 42.2194C16.4193 43.0849 16.4202 43.6607 16.4202 43.836H24.4752Z" fill="$pink"/>
<path d="M24.4752 43.836L24.4752 21.2168L20.4477 23.1017L16.4202 21.2168C16.394 26.1343 16.4115 37.8573 16.418 42.2194C16.4193 43.0849 16.4202 43.6607 16.4202 43.836H24.4752Z" stroke="black"/>
<path d="M66.1523 9.25V13.1H53.1523V23.45H65.1523V27.25H53.1523V38.15H66.1523V42H48.9023V9.25H66.1523ZM83.2281 8.65C84.4615 8.65 85.8781 8.76666 87.4781 9C89.0781 9.2 90.5448 9.43333 91.8781 9.7L91.7781 13.45C88.0115 12.7167 85.1615 12.35 83.2281 12.35C80.9281 12.35 79.2781 12.8167 78.2781 13.75C77.3115 14.65 76.8281 16.1667 76.8281 18.3V32.8C76.8281 34.9333 77.3115 36.4833 78.2781 37.45C79.2781 38.3833 80.9281 38.85 83.2281 38.85C84.7281 38.85 86.6781 38.6167 89.0781 38.15V27.1H82.8281V23.1H93.3281V40.75C89.3281 41.9833 85.9615 42.6 83.2281 42.6C79.3948 42.6 76.6615 41.7833 75.0281 40.15C73.3948 38.5167 72.5781 35.9667 72.5781 32.5V18.75C72.5781 15.2167 73.4115 12.65 75.0781 11.05C76.7448 9.45 79.4615 8.65 83.2281 8.65ZM112.713 9.25L122.763 42H118.163L116.013 34.4H103.963L101.813 42H97.4625L107.463 9.25H112.713ZM110.012 13.15L105.013 30.6H114.963L110.012 13.15ZM135.874 8.65C139.807 8.65 142.707 9.41666 144.574 10.95C146.44 12.4833 147.374 14.6333 147.374 17.4V18.65C147.374 20.5833 146.84 22.3 145.774 23.8C144.707 25.2667 143.174 26.3 141.174 26.9L149.674 42H144.924L136.974 27.8C136.707 27.8333 136.174 27.85 135.374 27.85C134.04 27.85 132.724 27.8 131.424 27.7V42H127.174V8.85C130.907 8.71666 133.807 8.65 135.874 8.65ZM135.774 12.25C134.674 12.25 133.224 12.2833 131.424 12.35V24.15C133.224 24.3167 134.724 24.4 135.924 24.4C140.724 24.4 143.124 22.45 143.124 18.55V17.55C143.124 15.75 142.54 14.4167 141.374 13.55C140.207 12.6833 138.34 12.25 135.774 12.25ZM165.838 9.25L175.888 42H171.288L169.138 34.4H157.088L154.938 42H150.588L160.588 9.25H165.838ZM163.137 13.15L158.138 30.6H168.088L163.137 13.15ZM203.849 42L203.599 15.1L196.649 38.6H191.399L184.449 15.1L184.199 42H180.049L180.349 9.25H186.649L194.049 34.8L201.399 9.25H207.699L207.999 42H203.849ZM227.41 9.25L237.46 42H232.86L230.71 34.4H218.66L216.51 42H212.16L222.16 9.25H227.41ZM224.71 13.15L219.71 30.6H229.66L224.71 13.15Z" fill="#FEFEFE"/>
</svg>
