<svg width="25" height="24" viewBox="0 0 25 24" fill="none" xmlns="http://www.w3.org/2000/svg">
<path d="M20.9196 0.521484H4.19753C2.30955 0.521484 0.871094 1.95993 0.871094 3.8479V20.5699C0.871094 22.4578 2.30955 23.8963 4.19753 23.8963H20.9196C22.8076 23.8963 24.2461 22.4578 24.2461 20.5699V3.8479C24.2461 1.95993 22.8076 0.521484 20.9196 0.521484ZM12.5586 19.2213C16.4244 19.2213 19.5711 16.1646 19.5711 12.4786C19.5711 11.8493 19.4812 11.13 19.3014 10.5906H21.2792V20.1204C21.2792 20.5699 20.9196 21.0194 20.3802 21.0194H4.73696C4.28744 21.0194 3.83792 20.6598 3.83792 20.1204V10.5007H5.90571C5.7259 11.13 5.636 11.7594 5.636 12.3887C5.54609 16.1646 8.69272 19.2213 12.5586 19.2213ZM12.5586 16.5242C10.0413 16.5242 8.06339 14.5464 8.06339 12.119C8.06339 9.6916 10.0413 7.71373 12.5586 7.71373C15.0759 7.71373 17.0538 9.6916 17.0538 12.119C17.0538 14.6363 15.0759 16.5242 12.5586 16.5242ZM21.1893 6.9046C21.1893 7.44402 20.7398 7.89354 20.2004 7.89354H17.6831C17.1437 7.89354 16.6942 7.44402 16.6942 6.9046V4.47722C16.6942 3.9378 17.1437 3.48829 17.6831 3.48829H20.2004C20.7398 3.48829 21.1893 3.9378 21.1893 4.47722V6.9046Z" fill="white"/>
</svg>
