<svg width="26" height="18" viewBox="0 0 26 18" fill="none" xmlns="http://www.w3.org/2000/svg">
<path d="M25.0626 7.04908C25.0626 6.51574 24.9737 5.89352 24.9737 5.1824C24.8848 4.47128 24.7959 3.76016 24.707 3.13793C24.5293 2.42681 24.2626 1.89348 23.7292 1.44903C23.2848 1.00458 22.6626 0.737901 22.0404 0.649011C19.9959 0.382342 16.9737 0.293457 12.8848 0.293457C8.79593 0.293457 5.6848 0.382342 3.72925 0.649011C3.10703 0.737901 2.48481 1.00458 2.04036 1.44903C1.59592 1.89348 1.24036 2.42681 1.06258 3.13793C0.884804 3.76016 0.795926 4.38239 0.795926 5.1824C0.707037 5.89352 0.707031 6.51574 0.707031 7.04908C0.707031 7.58242 0.707031 8.20466 0.707031 9.09356C0.707031 9.98245 0.707031 10.6936 0.707031 11.138C0.707031 11.6714 0.795926 12.2936 0.795926 13.0047C0.884814 13.7158 0.973693 14.4269 1.06258 15.0492C1.24036 15.7603 1.50703 16.2936 2.04036 16.7381C2.48481 17.1825 3.10703 17.4492 3.72925 17.5381C5.77369 17.8048 8.79593 17.8937 12.8848 17.8937C16.9737 17.8937 20.0848 17.8048 22.0404 17.5381C22.6626 17.4492 23.2848 17.1825 23.7292 16.7381C24.1737 16.2936 24.5293 15.7603 24.707 15.0492C24.8848 14.4269 24.9737 13.8047 24.9737 13.0047C25.0626 12.2936 25.0626 11.6714 25.0626 11.138C25.0626 10.6047 25.0626 9.98245 25.0626 9.09356C25.0626 8.20466 25.0626 7.49353 25.0626 7.04908ZM17.5959 9.80468L10.5737 14.1603C10.4848 14.2492 10.307 14.3381 10.1293 14.3381C9.95148 14.3381 9.86259 14.3381 9.68482 14.2492C9.41815 14.0714 9.24037 13.8047 9.24037 13.4492V4.64906C9.24037 4.2935 9.41815 4.02683 9.68482 3.84905C9.95148 3.67127 10.307 3.67127 10.5737 3.84905L17.5959 8.20466C17.8626 8.38244 18.0404 8.64911 18.0404 8.91578C18.0404 9.18245 17.8626 9.6269 17.5959 9.80468Z" fill="white"/>
</svg>
